<svg xmlns="http://www.w3.org/2000/svg" width="24" height="24" viewBox="0 0 24 24">
  <path fill="#FFFFFF" d="M12.545,12.151L12.545,12.151c0,1.054,0.855,1.909,1.909,1.909h3.536c-0.607,1.972-2.101,3.467-4.073,4.073v-2.909 c-1.054,0-1.909-0.855-1.909-1.909v-3.536c0.607-1.972,2.101-3.467,4.073-4.073v2.909c1.054,0,1.909,0.855,1.909,1.909v3.536 c-0.607,1.972-2.101,3.467-4.073,4.073v-2.909C13.4,13.006,12.545,12.151,12.545,12.151z M12,2C6.477,2,2,6.477,2,12 c0,5.523,4.477,10,10,10s10-4.477,10-10C22,6.477,17.523,2,12,2z M12,20c-4.418,0-8-3.582-8-8s3.582-8,8-8s8,3.582,8,8 S16.418,20,12,20z"/>
</svg> 